<svg xmlns="http://www.w3.org/2000/svg" xmlns:xlink="http://www.w3.org/1999/xlink" width="25" height="36" fill="white">
<rect x="0" y="0" width="25" height="36"/>
<line x1="9" y1="0" x2="25" y2="24" stroke="yellow" stroke-width="1"/>
<line x1="0" y1="12" x2="16" y2="36" stroke="yellow" stroke-width="1"/>
<line x1="0"  y1="0" x2="25" y2="0" stroke="black" stroke-width="2"/>
<line x1="0"  y1="0"  x2="0"  y2="36" stroke="black" stroke-width="2"/>
<line x1="25" y1="0"  x2="25" y2="36" stroke="black" stroke-width="2"/>
<line x1="0"  y1="36" x2="25" y2="36" stroke="black" stroke-width="2"/>
<g fill="black">
<rect x="11" y="14" width="1" height="1"/>
</g>
<g fill="black">
<rect x="12" y="14" width="1" height="1"/>
</g>
<g fill="black">
<rect x="13" y="14" width="1" height="1"/>
</g>
<g fill="black">
<rect x="10" y="15" width="1" height="1"/>
</g>
<g fill="black">
<rect x="14" y="15" width="1" height="1"/>
</g>
<g fill="black">
<rect x="10" y="16" width="1" height="1"/>
</g>
<g fill="black">
<rect x="10" y="17" width="1" height="1"/>
</g>
<g fill="black">
<rect x="10" y="18" width="1" height="1"/>
</g>
<g fill="black">
<rect x="10" y="19" width="1" height="1"/>
</g>
<g fill="black">
<rect x="10" y="20" width="1" height="1"/>
</g>
<g fill="black">
<rect x="14" y="20" width="1" height="1"/>
</g>
<g fill="black">
<rect x="11" y="21" width="1" height="1"/>
</g>
<g fill="black">
<rect x="12" y="21" width="1" height="1"/>
</g>
<g fill="black">
<rect x="13" y="21" width="1" height="1"/>
</g>
</svg>
