<svg xmlns="http://www.w3.org/2000/svg" xmlns:xlink="http://www.w3.org/1999/xlink" width="25" height="36" fill="white">
<rect x="0" y="0" width="25" height="36"/>
<line x1="9" y1="0" x2="25" y2="24" stroke="gold" stroke-width="1"/>
<line x1="0" y1="12" x2="16" y2="36" stroke="gold" stroke-width="1"/>
<line x1="0"  y1="0" x2="25" y2="0" stroke="black" stroke-width="2"/>
<line x1="0"  y1="0"  x2="0"  y2="36" stroke="black" stroke-width="2"/>
<line x1="25" y1="0"  x2="25" y2="36" stroke="black" stroke-width="2"/>
<line x1="0"  y1="36" x2="25" y2="36" stroke="black" stroke-width="2"/>
<g fill="black">
<rect x="2" y="3" width="1" height="1"/>
</g>
<g fill="black">
<rect x="3" y="3" width="1" height="1"/>
</g>
<g fill="black">
<rect x="4" y="3" width="1" height="1"/>
</g>
<g fill="black">
<rect x="5" y="3" width="1" height="1"/>
</g>
<g fill="black">
<rect x="2" y="4" width="1" height="1"/>
</g>
<g fill="black">
<rect x="6" y="4" width="1" height="1"/>
</g>
<g fill="black">
<rect x="2" y="5" width="1" height="1"/>
</g>
<g fill="black">
<rect x="6" y="5" width="1" height="1"/>
</g>
<g fill="black">
<rect x="2" y="6" width="1" height="1"/>
</g>
<g fill="black">
<rect x="6" y="6" width="1" height="1"/>
</g>
<g fill="black">
<rect x="2" y="7" width="1" height="1"/>
</g>
<g fill="black">
<rect x="6" y="7" width="1" height="1"/>
</g>
<g fill="black">
<rect x="2" y="8" width="1" height="1"/>
</g>
<g fill="black">
<rect x="3" y="8" width="1" height="1"/>
</g>
<g fill="black">
<rect x="4" y="8" width="1" height="1"/>
</g>
<g fill="black">
<rect x="5" y="8" width="1" height="1"/>
</g>
<g fill="black">
<rect x="2" y="9" width="1" height="1"/>
</g>
<g fill="black">
<rect x="2" y="10" width="1" height="1"/>
</g>
<g fill="black">
<rect x="11" y="16" width="1" height="1"/>
</g>
<g fill="black">
<rect x="12" y="16" width="1" height="1"/>
</g>
<g fill="black">
<rect x="13" y="16" width="1" height="1"/>
</g>
<g fill="black">
<rect x="14" y="16" width="1" height="1"/>
</g>
<g fill="black">
<rect x="10" y="17" width="1" height="1"/>
</g>
<g fill="black">
<rect x="14" y="17" width="1" height="1"/>
</g>
<g fill="black">
<rect x="10" y="18" width="1" height="1"/>
</g>
<g fill="black">
<rect x="14" y="18" width="1" height="1"/>
</g>
<g fill="black">
<rect x="10" y="19" width="1" height="1"/>
</g>
<g fill="black">
<rect x="14" y="19" width="1" height="1"/>
</g>
<g fill="black">
<rect x="10" y="20" width="1" height="1"/>
</g>
<g fill="black">
<rect x="14" y="20" width="1" height="1"/>
</g>
<g fill="black">
<rect x="11" y="21" width="1" height="1"/>
</g>
<g fill="black">
<rect x="12" y="21" width="1" height="1"/>
</g>
<g fill="black">
<rect x="13" y="21" width="1" height="1"/>
</g>
<g fill="black">
<rect x="14" y="21" width="1" height="1"/>
</g>
<g fill="black">
<rect x="14" y="22" width="1" height="1"/>
</g>
<g fill="black">
<rect x="11" y="23" width="1" height="1"/>
</g>
<g fill="black">
<rect x="12" y="23" width="1" height="1"/>
</g>
<g fill="black">
<rect x="13" y="23" width="1" height="1"/>
</g>
<g fill="black">
<rect x="18" y="26" width="1" height="1"/>
</g>
<g fill="black">
<rect x="19" y="26" width="1" height="1"/>
</g>
<g fill="black">
<rect x="20" y="26" width="1" height="1"/>
</g>
<g fill="black">
<rect x="21" y="26" width="1" height="1"/>
</g>
<g fill="black">
<rect x="18" y="27" width="1" height="1"/>
</g>
<g fill="black">
<rect x="22" y="27" width="1" height="1"/>
</g>
<g fill="black">
<rect x="18" y="28" width="1" height="1"/>
</g>
<g fill="black">
<rect x="22" y="28" width="1" height="1"/>
</g>
<g fill="black">
<rect x="18" y="29" width="1" height="1"/>
</g>
<g fill="black">
<rect x="22" y="29" width="1" height="1"/>
</g>
<g fill="black">
<rect x="18" y="30" width="1" height="1"/>
</g>
<g fill="black">
<rect x="22" y="30" width="1" height="1"/>
</g>
<g fill="black">
<rect x="18" y="31" width="1" height="1"/>
</g>
<g fill="black">
<rect x="19" y="31" width="1" height="1"/>
</g>
<g fill="black">
<rect x="20" y="31" width="1" height="1"/>
</g>
<g fill="black">
<rect x="21" y="31" width="1" height="1"/>
</g>
<g fill="black">
<rect x="18" y="32" width="1" height="1"/>
</g>
<g fill="black">
<rect x="18" y="33" width="1" height="1"/>
</g>
</svg>
