<svg xmlns="http://www.w3.org/2000/svg" xmlns:xlink="http://www.w3.org/1999/xlink" width="25" height="36" fill="white">
<rect x="0" y="0" width="25" height="36"/>
<line x1="9" y1="0" x2="25" y2="24" stroke="blue" stroke-width="1"/>
<line x1="0" y1="12" x2="16" y2="36" stroke="blue" stroke-width="1"/>
<line x1="0"  y1="0" x2="25" y2="0" stroke="black" stroke-width="2"/>
<line x1="0"  y1="0"  x2="0"  y2="36" stroke="black" stroke-width="2"/>
<line x1="25" y1="0"  x2="25" y2="36" stroke="black" stroke-width="2"/>
<line x1="0"  y1="36" x2="25" y2="36" stroke="black" stroke-width="2"/>
<g fill="black">
<rect x="3" y="5" width="1" height="1"/>
</g>
<g fill="black">
<rect x="4" y="5" width="1" height="1"/>
</g>
<g fill="black">
<rect x="5" y="5" width="1" height="1"/>
</g>
<g fill="black">
<rect x="6" y="5" width="1" height="1"/>
</g>
<g fill="black">
<rect x="2" y="6" width="1" height="1"/>
</g>
<g fill="black">
<rect x="3" y="7" width="1" height="1"/>
</g>
<g fill="black">
<rect x="4" y="7" width="1" height="1"/>
</g>
<g fill="black">
<rect x="5" y="7" width="1" height="1"/>
</g>
<g fill="black">
<rect x="6" y="8" width="1" height="1"/>
</g>
<g fill="black">
<rect x="6" y="9" width="1" height="1"/>
</g>
<g fill="black">
<rect x="2" y="10" width="1" height="1"/>
</g>
<g fill="black">
<rect x="3" y="10" width="1" height="1"/>
</g>
<g fill="black">
<rect x="4" y="10" width="1" height="1"/>
</g>
<g fill="black">
<rect x="5" y="10" width="1" height="1"/>
</g>
<g fill="black">
<rect x="19" y="5" width="1" height="1"/>
</g>
<g fill="black">
<rect x="20" y="5" width="1" height="1"/>
</g>
<g fill="black">
<rect x="21" y="5" width="1" height="1"/>
</g>
<g fill="black">
<rect x="22" y="6" width="1" height="1"/>
</g>
<g fill="black">
<rect x="19" y="7" width="1" height="1"/>
</g>
<g fill="black">
<rect x="20" y="7" width="1" height="1"/>
</g>
<g fill="black">
<rect x="21" y="7" width="1" height="1"/>
</g>
<g fill="black">
<rect x="22" y="7" width="1" height="1"/>
</g>
<g fill="black">
<rect x="18" y="8" width="1" height="1"/>
</g>
<g fill="black">
<rect x="22" y="8" width="1" height="1"/>
</g>
<g fill="black">
<rect x="18" y="9" width="1" height="1"/>
</g>
<g fill="black">
<rect x="22" y="9" width="1" height="1"/>
</g>
<g fill="black">
<rect x="19" y="10" width="1" height="1"/>
</g>
<g fill="black">
<rect x="20" y="10" width="1" height="1"/>
</g>
<g fill="black">
<rect x="21" y="10" width="1" height="1"/>
</g>
<g fill="black">
<rect x="22" y="10" width="1" height="1"/>
</g>
<g fill="black">
<rect x="3" y="26" width="1" height="1"/>
</g>
<g fill="black">
<rect x="4" y="26" width="1" height="1"/>
</g>
<g fill="black">
<rect x="5" y="26" width="1" height="1"/>
</g>
<g fill="black">
<rect x="6" y="26" width="1" height="1"/>
</g>
<g fill="black">
<rect x="2" y="27" width="1" height="1"/>
</g>
<g fill="black">
<rect x="6" y="27" width="1" height="1"/>
</g>
<g fill="black">
<rect x="2" y="28" width="1" height="1"/>
</g>
<g fill="black">
<rect x="6" y="28" width="1" height="1"/>
</g>
<g fill="black">
<rect x="2" y="29" width="1" height="1"/>
</g>
<g fill="black">
<rect x="6" y="29" width="1" height="1"/>
</g>
<g fill="black">
<rect x="2" y="30" width="1" height="1"/>
</g>
<g fill="black">
<rect x="6" y="30" width="1" height="1"/>
</g>
<g fill="black">
<rect x="3" y="31" width="1" height="1"/>
</g>
<g fill="black">
<rect x="4" y="31" width="1" height="1"/>
</g>
<g fill="black">
<rect x="5" y="31" width="1" height="1"/>
</g>
<g fill="black">
<rect x="6" y="31" width="1" height="1"/>
</g>
<g fill="black">
<rect x="6" y="32" width="1" height="1"/>
</g>
<g fill="black">
<rect x="3" y="33" width="1" height="1"/>
</g>
<g fill="black">
<rect x="4" y="33" width="1" height="1"/>
</g>
<g fill="black">
<rect x="5" y="33" width="1" height="1"/>
</g>
<g fill="black">
<rect x="19" y="27" width="1" height="1"/>
</g>
<g fill="black">
<rect x="20" y="27" width="1" height="1"/>
</g>
<g fill="black">
<rect x="21" y="27" width="1" height="1"/>
</g>
<g fill="black">
<rect x="18" y="28" width="1" height="1"/>
</g>
<g fill="black">
<rect x="22" y="28" width="1" height="1"/>
</g>
<g fill="black">
<rect x="18" y="29" width="1" height="1"/>
</g>
<g fill="black">
<rect x="19" y="29" width="1" height="1"/>
</g>
<g fill="black">
<rect x="20" y="29" width="1" height="1"/>
</g>
<g fill="black">
<rect x="21" y="29" width="1" height="1"/>
</g>
<g fill="black">
<rect x="22" y="29" width="1" height="1"/>
</g>
<g fill="black">
<rect x="18" y="30" width="1" height="1"/>
</g>
<g fill="black">
<rect x="18" y="31" width="1" height="1"/>
</g>
<g fill="black">
<rect x="19" y="32" width="1" height="1"/>
</g>
<g fill="black">
<rect x="20" y="32" width="1" height="1"/>
</g>
<g fill="black">
<rect x="21" y="32" width="1" height="1"/>
</g>
<g fill="black">
<rect x="22" y="32" width="1" height="1"/>
</g>
</svg>
