<svg xmlns="http://www.w3.org/2000/svg" xmlns:xlink="http://www.w3.org/1999/xlink" width="180" height="36" fill="white">
<rect x="0" y="0" width="398" height="36"/>
<line x1="164" y1="0" x2="180" y2="24" stroke="turquoise" stroke-width="1"/>
<line x1="0" y1="12" x2="16" y2="36" stroke="turquoise" stroke-width="1"/>
<line x1="0"  y1="0" x2="180" y2="0" stroke="black" stroke-width="2"/>
<line x1="0"  y1="0"  x2="0"  y2="36" stroke="black" stroke-width="2"/>
<line x1="180" y1="0"  x2="180" y2="36" stroke="black" stroke-width="2"/>
<line x1="0"  y1="36" x2="180" y2="36" stroke="black" stroke-width="2"/>
<g fill="black">
<rect x="11" y="14" width="1" height="1"/>
<rect x="11" y="15" width="1" height="1"/>
<rect x="11" y="16" width="1" height="1"/>
<rect x="12" y="16" width="1" height="1"/>
<rect x="13" y="16" width="1" height="1"/>
<rect x="14" y="16" width="1" height="1"/>
<rect x="11" y="17" width="1" height="1"/>
<rect x="15" y="17" width="1" height="1"/>
<rect x="11" y="18" width="1" height="1"/>
<rect x="15" y="18" width="1" height="1"/>
<rect x="11" y="19" width="1" height="1"/>
<rect x="15" y="19" width="1" height="1"/>
<rect x="11" y="20" width="1" height="1"/>
<rect x="15" y="20" width="1" height="1"/>
<rect x="11" y="21" width="1" height="1"/>
<rect x="12" y="21" width="1" height="1"/>
<rect x="13" y="21" width="1" height="1"/>
<rect x="14" y="21" width="1" height="1"/>
<rect x="19" y="16" width="1" height="1"/>
<rect x="20" y="16" width="1" height="1"/>
<rect x="21" y="16" width="1" height="1"/>
<rect x="22" y="17" width="1" height="1"/>
<rect x="19" y="18" width="1" height="1"/>
<rect x="20" y="18" width="1" height="1"/>
<rect x="21" y="18" width="1" height="1"/>
<rect x="22" y="18" width="1" height="1"/>
<rect x="18" y="19" width="1" height="1"/>
<rect x="22" y="19" width="1" height="1"/>
<rect x="18" y="20" width="1" height="1"/>
<rect x="22" y="20" width="1" height="1"/>
<rect x="19" y="21" width="1" height="1"/>
<rect x="20" y="21" width="1" height="1"/>
<rect x="21" y="21" width="1" height="1"/>
<rect x="22" y="21" width="1" height="1"/>
<rect x="26" y="14" width="1" height="1"/>
<rect x="27" y="14" width="1" height="1"/>
<rect x="27" y="15" width="1" height="1"/>
<rect x="27" y="16" width="1" height="1"/>
<rect x="27" y="17" width="1" height="1"/>
<rect x="27" y="18" width="1" height="1"/>
<rect x="27" y="19" width="1" height="1"/>
<rect x="27" y="20" width="1" height="1"/>
<rect x="26" y="21" width="1" height="1"/>
<rect x="27" y="21" width="1" height="1"/>
<rect x="28" y="21" width="1" height="1"/>
<rect x="36" y="14" width="1" height="1"/>
<rect x="36" y="15" width="1" height="1"/>
<rect x="33" y="16" width="1" height="1"/>
<rect x="34" y="16" width="1" height="1"/>
<rect x="35" y="16" width="1" height="1"/>
<rect x="36" y="16" width="1" height="1"/>
<rect x="32" y="17" width="1" height="1"/>
<rect x="36" y="17" width="1" height="1"/>
<rect x="32" y="18" width="1" height="1"/>
<rect x="36" y="18" width="1" height="1"/>
<rect x="32" y="19" width="1" height="1"/>
<rect x="36" y="19" width="1" height="1"/>
<rect x="32" y="20" width="1" height="1"/>
<rect x="36" y="20" width="1" height="1"/>
<rect x="33" y="21" width="1" height="1"/>
<rect x="34" y="21" width="1" height="1"/>
<rect x="35" y="21" width="1" height="1"/>
<rect x="36" y="21" width="1" height="1"/>
<rect x="39" y="16" width="1" height="1"/>
<rect x="43" y="16" width="1" height="1"/>
<rect x="39" y="17" width="1" height="1"/>
<rect x="43" y="17" width="1" height="1"/>
<rect x="39" y="18" width="1" height="1"/>
<rect x="43" y="18" width="1" height="1"/>
<rect x="39" y="19" width="1" height="1"/>
<rect x="43" y="19" width="1" height="1"/>
<rect x="39" y="20" width="1" height="1"/>
<rect x="43" y="20" width="1" height="1"/>
<rect x="40" y="21" width="1" height="1"/>
<rect x="41" y="21" width="1" height="1"/>
<rect x="42" y="21" width="1" height="1"/>
<rect x="43" y="21" width="1" height="1"/>
<rect x="46" y="16" width="1" height="1"/>
<rect x="48" y="16" width="1" height="1"/>
<rect x="49" y="16" width="1" height="1"/>
<rect x="50" y="16" width="1" height="1"/>
<rect x="46" y="17" width="1" height="1"/>
<rect x="47" y="17" width="1" height="1"/>
<rect x="46" y="18" width="1" height="1"/>
<rect x="46" y="19" width="1" height="1"/>
<rect x="46" y="20" width="1" height="1"/>
<rect x="46" y="21" width="1" height="1"/>
<rect x="54" y="16" width="1" height="1"/>
<rect x="55" y="16" width="1" height="1"/>
<rect x="56" y="16" width="1" height="1"/>
<rect x="57" y="16" width="1" height="1"/>
<rect x="53" y="17" width="1" height="1"/>
<rect x="54" y="18" width="1" height="1"/>
<rect x="55" y="18" width="1" height="1"/>
<rect x="56" y="18" width="1" height="1"/>
<rect x="57" y="19" width="1" height="1"/>
<rect x="57" y="20" width="1" height="1"/>
<rect x="53" y="21" width="1" height="1"/>
<rect x="54" y="21" width="1" height="1"/>
<rect x="55" y="21" width="1" height="1"/>
<rect x="56" y="21" width="1" height="1"/>
<rect x="62" y="13" width="1" height="1"/>
<rect x="62" y="14" width="1" height="1"/>
<rect x="61" y="16" width="1" height="1"/>
<rect x="62" y="16" width="1" height="1"/>
<rect x="62" y="17" width="1" height="1"/>
<rect x="62" y="18" width="1" height="1"/>
<rect x="62" y="19" width="1" height="1"/>
<rect x="62" y="20" width="1" height="1"/>
<rect x="61" y="21" width="1" height="1"/>
<rect x="62" y="21" width="1" height="1"/>
<rect x="63" y="21" width="1" height="1"/>
<rect x="68" y="16" width="1" height="1"/>
<rect x="69" y="16" width="1" height="1"/>
<rect x="70" y="16" width="1" height="1"/>
<rect x="71" y="16" width="1" height="1"/>
<rect x="67" y="17" width="1" height="1"/>
<rect x="71" y="17" width="1" height="1"/>
<rect x="67" y="18" width="1" height="1"/>
<rect x="71" y="18" width="1" height="1"/>
<rect x="67" y="19" width="1" height="1"/>
<rect x="71" y="19" width="1" height="1"/>
<rect x="67" y="20" width="1" height="1"/>
<rect x="71" y="20" width="1" height="1"/>
<rect x="68" y="21" width="1" height="1"/>
<rect x="69" y="21" width="1" height="1"/>
<rect x="70" y="21" width="1" height="1"/>
<rect x="71" y="21" width="1" height="1"/>
<rect x="71" y="22" width="1" height="1"/>
<rect x="68" y="23" width="1" height="1"/>
<rect x="69" y="23" width="1" height="1"/>
<rect x="70" y="23" width="1" height="1"/>
<rect x="74" y="16" width="1" height="1"/>
<rect x="78" y="16" width="1" height="1"/>
<rect x="74" y="17" width="1" height="1"/>
<rect x="78" y="17" width="1" height="1"/>
<rect x="74" y="18" width="1" height="1"/>
<rect x="78" y="18" width="1" height="1"/>
<rect x="74" y="19" width="1" height="1"/>
<rect x="78" y="19" width="1" height="1"/>
<rect x="74" y="20" width="1" height="1"/>
<rect x="78" y="20" width="1" height="1"/>
<rect x="75" y="21" width="1" height="1"/>
<rect x="76" y="21" width="1" height="1"/>
<rect x="77" y="21" width="1" height="1"/>
<rect x="78" y="21" width="1" height="1"/>
<rect x="81" y="16" width="1" height="1"/>
<rect x="83" y="16" width="1" height="1"/>
<rect x="84" y="16" width="1" height="1"/>
<rect x="85" y="16" width="1" height="1"/>
<rect x="81" y="17" width="1" height="1"/>
<rect x="82" y="17" width="1" height="1"/>
<rect x="81" y="18" width="1" height="1"/>
<rect x="81" y="19" width="1" height="1"/>
<rect x="81" y="20" width="1" height="1"/>
<rect x="81" y="21" width="1" height="1"/>
<rect x="92" y="14" width="1" height="1"/>
<rect x="92" y="15" width="1" height="1"/>
<rect x="89" y="16" width="1" height="1"/>
<rect x="90" y="16" width="1" height="1"/>
<rect x="91" y="16" width="1" height="1"/>
<rect x="92" y="16" width="1" height="1"/>
<rect x="88" y="17" width="1" height="1"/>
<rect x="92" y="17" width="1" height="1"/>
<rect x="88" y="18" width="1" height="1"/>
<rect x="92" y="18" width="1" height="1"/>
<rect x="88" y="19" width="1" height="1"/>
<rect x="92" y="19" width="1" height="1"/>
<rect x="88" y="20" width="1" height="1"/>
<rect x="92" y="20" width="1" height="1"/>
<rect x="89" y="21" width="1" height="1"/>
<rect x="90" y="21" width="1" height="1"/>
<rect x="91" y="21" width="1" height="1"/>
<rect x="92" y="21" width="1" height="1"/>
<rect x="96" y="16" width="1" height="1"/>
<rect x="97" y="16" width="1" height="1"/>
<rect x="98" y="16" width="1" height="1"/>
<rect x="99" y="16" width="1" height="1"/>
<rect x="95" y="17" width="1" height="1"/>
<rect x="96" y="18" width="1" height="1"/>
<rect x="97" y="18" width="1" height="1"/>
<rect x="98" y="18" width="1" height="1"/>
<rect x="99" y="19" width="1" height="1"/>
<rect x="99" y="20" width="1" height="1"/>
<rect x="95" y="21" width="1" height="1"/>
<rect x="96" y="21" width="1" height="1"/>
<rect x="97" y="21" width="1" height="1"/>
<rect x="98" y="21" width="1" height="1"/>
<rect x="103" y="14" width="1" height="1"/>
<rect x="104" y="14" width="1" height="1"/>
<rect x="105" y="14" width="1" height="1"/>
<rect x="102" y="15" width="1" height="1"/>
<rect x="106" y="15" width="1" height="1"/>
<rect x="102" y="16" width="1" height="1"/>
<rect x="105" y="16" width="1" height="1"/>
<rect x="106" y="16" width="1" height="1"/>
<rect x="102" y="17" width="1" height="1"/>
<rect x="104" y="17" width="1" height="1"/>
<rect x="106" y="17" width="1" height="1"/>
<rect x="102" y="18" width="1" height="1"/>
<rect x="104" y="18" width="1" height="1"/>
<rect x="106" y="18" width="1" height="1"/>
<rect x="102" y="19" width="1" height="1"/>
<rect x="105" y="19" width="1" height="1"/>
<rect x="106" y="19" width="1" height="1"/>
<rect x="102" y="20" width="1" height="1"/>
<rect x="103" y="21" width="1" height="1"/>
<rect x="104" y="21" width="1" height="1"/>
<rect x="105" y="21" width="1" height="1"/>
<rect x="106" y="21" width="1" height="1"/>
<rect x="110" y="16" width="1" height="1"/>
<rect x="111" y="16" width="1" height="1"/>
<rect x="112" y="16" width="1" height="1"/>
<rect x="113" y="16" width="1" height="1"/>
<rect x="109" y="17" width="1" height="1"/>
<rect x="113" y="17" width="1" height="1"/>
<rect x="109" y="18" width="1" height="1"/>
<rect x="113" y="18" width="1" height="1"/>
<rect x="109" y="19" width="1" height="1"/>
<rect x="113" y="19" width="1" height="1"/>
<rect x="109" y="20" width="1" height="1"/>
<rect x="113" y="20" width="1" height="1"/>
<rect x="110" y="21" width="1" height="1"/>
<rect x="111" y="21" width="1" height="1"/>
<rect x="112" y="21" width="1" height="1"/>
<rect x="113" y="21" width="1" height="1"/>
<rect x="113" y="22" width="1" height="1"/>
<rect x="110" y="23" width="1" height="1"/>
<rect x="111" y="23" width="1" height="1"/>
<rect x="112" y="23" width="1" height="1"/>
<rect x="116" y="16" width="1" height="1"/>
<rect x="117" y="16" width="1" height="1"/>
<rect x="118" y="16" width="1" height="1"/>
<rect x="119" y="16" width="1" height="1"/>
<rect x="116" y="17" width="1" height="1"/>
<rect x="118" y="17" width="1" height="1"/>
<rect x="120" y="17" width="1" height="1"/>
<rect x="116" y="18" width="1" height="1"/>
<rect x="118" y="18" width="1" height="1"/>
<rect x="120" y="18" width="1" height="1"/>
<rect x="116" y="19" width="1" height="1"/>
<rect x="118" y="19" width="1" height="1"/>
<rect x="120" y="19" width="1" height="1"/>
<rect x="116" y="20" width="1" height="1"/>
<rect x="118" y="20" width="1" height="1"/>
<rect x="120" y="20" width="1" height="1"/>
<rect x="116" y="21" width="1" height="1"/>
<rect x="118" y="21" width="1" height="1"/>
<rect x="120" y="21" width="1" height="1"/>
<rect x="124" y="16" width="1" height="1"/>
<rect x="125" y="16" width="1" height="1"/>
<rect x="126" y="16" width="1" height="1"/>
<rect x="127" y="17" width="1" height="1"/>
<rect x="124" y="18" width="1" height="1"/>
<rect x="125" y="18" width="1" height="1"/>
<rect x="126" y="18" width="1" height="1"/>
<rect x="127" y="18" width="1" height="1"/>
<rect x="123" y="19" width="1" height="1"/>
<rect x="127" y="19" width="1" height="1"/>
<rect x="123" y="20" width="1" height="1"/>
<rect x="127" y="20" width="1" height="1"/>
<rect x="124" y="21" width="1" height="1"/>
<rect x="125" y="21" width="1" height="1"/>
<rect x="126" y="21" width="1" height="1"/>
<rect x="127" y="21" width="1" height="1"/>
<rect x="132" y="13" width="1" height="1"/>
<rect x="132" y="14" width="1" height="1"/>
<rect x="131" y="16" width="1" height="1"/>
<rect x="132" y="16" width="1" height="1"/>
<rect x="132" y="17" width="1" height="1"/>
<rect x="132" y="18" width="1" height="1"/>
<rect x="132" y="19" width="1" height="1"/>
<rect x="132" y="20" width="1" height="1"/>
<rect x="131" y="21" width="1" height="1"/>
<rect x="132" y="21" width="1" height="1"/>
<rect x="133" y="21" width="1" height="1"/>
<rect x="138" y="14" width="1" height="1"/>
<rect x="139" y="14" width="1" height="1"/>
<rect x="139" y="15" width="1" height="1"/>
<rect x="139" y="16" width="1" height="1"/>
<rect x="139" y="17" width="1" height="1"/>
<rect x="139" y="18" width="1" height="1"/>
<rect x="139" y="19" width="1" height="1"/>
<rect x="139" y="20" width="1" height="1"/>
<rect x="138" y="21" width="1" height="1"/>
<rect x="139" y="21" width="1" height="1"/>
<rect x="140" y="21" width="1" height="1"/>
<rect x="146" y="20" width="1" height="1"/>
<rect x="146" y="21" width="1" height="1"/>
<rect x="152" y="16" width="1" height="1"/>
<rect x="153" y="16" width="1" height="1"/>
<rect x="154" y="16" width="1" height="1"/>
<rect x="151" y="17" width="1" height="1"/>
<rect x="155" y="17" width="1" height="1"/>
<rect x="151" y="18" width="1" height="1"/>
<rect x="151" y="19" width="1" height="1"/>
<rect x="151" y="20" width="1" height="1"/>
<rect x="155" y="20" width="1" height="1"/>
<rect x="152" y="21" width="1" height="1"/>
<rect x="153" y="21" width="1" height="1"/>
<rect x="154" y="21" width="1" height="1"/>
<rect x="159" y="16" width="1" height="1"/>
<rect x="160" y="16" width="1" height="1"/>
<rect x="161" y="16" width="1" height="1"/>
<rect x="158" y="17" width="1" height="1"/>
<rect x="162" y="17" width="1" height="1"/>
<rect x="158" y="18" width="1" height="1"/>
<rect x="162" y="18" width="1" height="1"/>
<rect x="158" y="19" width="1" height="1"/>
<rect x="162" y="19" width="1" height="1"/>
<rect x="158" y="20" width="1" height="1"/>
<rect x="162" y="20" width="1" height="1"/>
<rect x="159" y="21" width="1" height="1"/>
<rect x="160" y="21" width="1" height="1"/>
<rect x="161" y="21" width="1" height="1"/>
<rect x="165" y="16" width="1" height="1"/>
<rect x="166" y="16" width="1" height="1"/>
<rect x="167" y="16" width="1" height="1"/>
<rect x="168" y="16" width="1" height="1"/>
<rect x="165" y="17" width="1" height="1"/>
<rect x="167" y="17" width="1" height="1"/>
<rect x="169" y="17" width="1" height="1"/>
<rect x="165" y="18" width="1" height="1"/>
<rect x="167" y="18" width="1" height="1"/>
<rect x="169" y="18" width="1" height="1"/>
<rect x="165" y="19" width="1" height="1"/>
<rect x="167" y="19" width="1" height="1"/>
<rect x="169" y="19" width="1" height="1"/>
<rect x="165" y="20" width="1" height="1"/>
<rect x="167" y="20" width="1" height="1"/>
<rect x="169" y="20" width="1" height="1"/>
<rect x="165" y="21" width="1" height="1"/>
<rect x="167" y="21" width="1" height="1"/>
<rect x="169" y="21" width="1" height="1"/>
</g>
</svg>
